<?xml version="1.0" encoding="utf-8" ?>
<svg baseProfile="tiny" height="100%" version="1.2" width="100%" xmlns="http://www.w3.org/2000/svg" xmlns:ev="http://www.w3.org/2001/xml-events" xmlns:xlink="http://www.w3.org/1999/xlink"><defs /><polyline fill="none" points="360.0,357.0 360.0,392.0 364.0,364.0 381.0,388.0 387.0,392.0 387.0,357.0 384.0,357.0 383.0,384.0" stroke="black" stroke-width="2" /><polyline fill="none" points="326.0,357.0 316.0,365.0 315.0,381.0 324.0,391.0 338.0,392.0 349.0,382.0 349.0,367.0 338.0,357.0" stroke="black" stroke-width="2" /><polyline fill="none" points="339.0,300.0 339.0,334.0 357.0,335.0 358.0,332.0 343.0,332.0 341.0,329.0 343.0,318.0 356.0,317.0 343.0,315.0 342.0,303.0 357.0,300.0" stroke="black" stroke-width="2" /><polyline fill="none" points="375.0,299.0 367.0,303.0 366.0,312.0 370.0,316.0 384.0,320.0 386.0,327.0 381.0,332.0 372.0,331.0 368.0,325.0 365.0,325.0 365.0,328.0 371.0,334.0 380.0,335.0 388.0,330.0 389.0,322.0 386.0,318.0 371.0,313.0 368.0,307.0 374.0,302.0 380.0,302.0 386.0,308.0 388.0,305.0 383.0,300.0" stroke="black" stroke-width="2" /><polyline fill="none" points="304.0,300.0 294.0,310.0 294.0,324.0 304.0,334.0 318.0,334.0 328.0,325.0 328.0,309.0 318.0,300.0" stroke="black" stroke-width="2" /><polyline fill="none" points="262.0,300.0 253.0,308.0 253.0,326.0 262.0,334.0 276.0,334.0 284.0,327.0 286.0,318.0 269.0,318.0 269.0,321.0 283.0,323.0 274.0,332.0 264.0,332.0 255.0,323.0 255.0,311.0 265.0,302.0 276.0,303.0 283.0,311.0 285.0,309.0 278.0,301.0" stroke="black" stroke-width="2" /><polyline fill="none" points="366.0,242.0 366.0,245.0 377.0,247.0 379.0,277.0 379.0,248.0 391.0,243.0" stroke="black" stroke-width="2" /><polyline fill="none" points="337.0,242.0 336.0,277.0 339.0,277.0 339.0,265.0 348.0,263.0 356.0,276.0 360.0,277.0 352.0,264.0 360.0,255.0 358.0,246.0 351.0,242.0" stroke="black" stroke-width="2" /><polyline fill="none" points="311.0,242.0 296.0,277.0 300.0,276.0 304.0,268.0 320.0,268.0 324.0,276.0 328.0,277.0 315.0,245.0" stroke="black" stroke-width="2" /><polyline fill="none" points="108.0,109.0 108.0,393.0 297.0,393.0 297.0,385.0 115.0,384.0 115.0,117.0 383.0,116.0 384.0,211.0 390.0,212.0 392.0,109.0" stroke="black" stroke-width="2" /></svg>