<?xml version="1.0" encoding="UTF-8" standalone="no"?>
<!-- Created with Inkscape (http://www.inkscape.org/) -->

<svg
   version="1.1"
   id="svg1"
   width="500"
   height="500"
   viewBox="0 0 500 500"
   sodipodi:docname="NOIR-ink.svg"
   xml:space="preserve"
   inkscape:version="1.3.2 (091e20e, 2023-11-25)"
   xmlns:inkscape="http://www.inkscape.org/namespaces/inkscape"
   xmlns:sodipodi="http://sodipodi.sourceforge.net/DTD/sodipodi-0.dtd"
   xmlns="http://www.w3.org/2000/svg"
   xmlns:svg="http://www.w3.org/2000/svg"><defs
     id="defs1" /><sodipodi:namedview
     id="namedview1"
     pagecolor="#ffffff"
     bordercolor="#000000"
     borderopacity="0.25"
     inkscape:showpageshadow="2"
     inkscape:pageopacity="0.0"
     inkscape:pagecheckerboard="0"
     inkscape:deskcolor="#d1d1d1"
     inkscape:zoom="0.63167355"
     inkscape:cx="446.43313"
     inkscape:cy="522.42175"
     inkscape:window-width="1920"
     inkscape:window-height="1027"
     inkscape:window-x="0"
     inkscape:window-y="25"
     inkscape:window-maximized="1"
     inkscape:current-layer="g1" /><g
     inkscape:groupmode="layer"
     inkscape:label="Image"
     id="g1"><path
       style="fill:#000000"
       d="m 108.79587,395.04563 c -0.36666,-0.36667 -0.66666,-64.49321 -0.66666,-142.50342 V 110.70545 l 142.25,0.25342 142.25,0.25343 0.25914,50.70992 c 0.25212,49.33544 0.20646,50.73812 -1.68453,51.75014 -1.29308,0.69204 -2.80237,0.71374 -4.50914,0.0648 l -2.56547,-0.97539 V 165.73705 118.7123 h -134 -134 v 134 134 h 89.91821 c 49.45502,0 90.63002,0.27314 91.5,0.60698 0.99832,0.3831 1.58179,1.81908 1.58179,3.89302 0,2.07393 -0.58347,3.50991 -1.58179,3.89301 -2.16798,0.83193 -187.91867,0.7732 -188.75155,-0.0597 z m 217.54738,-1.04378 c -3.85768,-0.73928 -9.88168,-7.32619 -11.20628,-12.25343 -2.17632,-8.09547 0.0713,-14.60113 6.81998,-19.74044 3.8157,-2.90576 5.058,-3.29524 10.5,-3.29195 8.75859,0.005 13.8173,3.20389 17.18888,10.86839 3.97531,9.03696 -0.76461,20.63847 -9.83172,24.06426 -2.77269,1.04759 -8.99591,1.21075 -13.47086,0.35317 z m 10.97168,-3.32439 c 4.4709,-1.24175 8.38315,-5.65038 9.85073,-11.10055 0.95253,-3.5374 0.79911,-4.6285 -1.2237,-8.70309 -4.13994,-8.33918 -12.04951,-11.30034 -19.79282,-7.40997 -11.46773,5.76159 -10.53354,22.82808 1.48007,27.03901 3.92799,1.37682 5.27009,1.40101 9.68572,0.1746 z m 22.81428,-13.88183 c 0,-15.03744 0.24153,-18.08333 1.43399,-18.08333 0.78869,0 5.82613,6.075 11.19431,13.5 5.36818,7.425 10.12289,13.5 10.56601,13.5 0.44313,0 0.80569,-6.075 0.80569,-13.5 0,-12.83334 0.0988,-13.5 2,-13.5 1.92355,0 2,0.66666 2,17.44098 0,12.17638 -0.35099,17.6579 -1.16279,18.15962 -1.3975,0.86371 -3.69144,-1.77289 -14.33721,-16.47883 -4.4,-6.07811 -8.3248,-11.067 -8.72178,-11.08644 -0.39698,-0.0194 -0.84698,6.11528 -1,13.6327 -0.20033,9.8412 -0.6282,13.78431 -1.52822,14.08333 -0.96923,0.32202 -1.25,-3.64654 -1.25,-17.66803 z M 261.43772,335.4623 c -6.5453,-3.53966 -8.70253,-7.03139 -9.14129,-14.79628 -0.58123,-10.28648 3.84367,-16.79727 12.89095,-18.96768 7.78248,-1.86699 17.13855,1.76079 19.84169,7.69352 2.17643,4.77676 -0.84511,5.91458 -3.54939,1.33659 -2.48509,-4.20692 -7.50856,-6.35151 -13.52385,-5.77352 -17.93985,1.7238 -16.30718,28.77485 1.73526,28.75078 3.19409,-0.004 5.97383,-0.68934 7.87069,-1.93976 2.64012,-1.74038 5.43915,-5.41271 5.53199,-7.25796 0.0195,-0.38737 -2.99741,-0.83737 -6.70422,-1 -5.48301,-0.24056 -6.80188,-0.62199 -7.07333,-2.04569 -0.29793,-1.5626 0.63796,-1.75 8.73966,-1.75 10.14729,0 10.50665,0.33436 7.66064,7.12787 -1.76822,4.22081 -5.03969,7.32754 -9.81884,9.3244 -5.14532,2.14985 -9.58468,1.93425 -14.45996,-0.70227 z m 41.99397,-0.18945 c -4.29588,-2.00012 -5.64032,-3.29373 -7.75,-7.45699 -3.09156,-6.10089 -3.2024,-9.72203 -0.49054,-16.02592 6.61182,-15.36959 29.63294,-13.94626 34.40626,2.12724 2.6778,9.01711 -1.38419,17.94329 -9.9682,21.90507 -5.40565,2.49487 -9.9932,2.33926 -16.19752,-0.5494 z m 16.51555,-3.59096 c 2.06995,-1.26201 4.09999,-3.7907 5.39688,-6.72254 1.84459,-4.16999 1.94261,-5.20939 0.86985,-9.22333 -2.13439,-7.98615 -7.99326,-11.745 -16.76561,-10.75623 -12.20299,1.37545 -16.57224,16.83898 -7.16417,25.35523 3.03453,2.74686 4.39929,3.20358 9.84502,3.29459 2.86752,0.0479 5.70369,-0.65865 7.81803,-1.94772 z m 20.43197,5.36813 c -0.93285,-0.37642 -1.25,-4.9234 -1.25,-17.92106 V 301.7123 h 9.5 c 7.65596,0 9.5,0.283 9.5,1.45793 0,1.12671 -1.76071,1.52429 -7.75,1.75 l -7.75,0.29207 -0.30797,4.82769 c -0.42452,6.65492 0.79807,7.81359 7.97157,7.55472 3.21274,-0.11594 6.14024,0.0881 6.50554,0.4534 1.34514,1.34514 -0.99527,2.1765 -7.50006,2.66419 l -6.66908,0.5 v 6 6 l 8.25,0.29044 c 6.12384,0.21559 8.25,0.63902 8.25,1.64301 0,0.74391 -0.71181,1.62571 -1.58179,1.95956 -1.86858,0.71704 -15.36187,0.67358 -17.16821,-0.0553 z m 31.22963,-1.20798 c -5.41249,-2.45874 -8.68571,-9.12974 -4.47963,-9.12974 1.1,0 2,0.59655 2,1.32568 0,2.70971 4.50535,5.67432 8.62332,5.67432 6.18717,0 10.13394,-4.24389 8.09943,-8.70915 -0.78687,-1.72699 -2.87107,-2.88582 -7.98267,-4.43842 -8.42353,-2.55857 -11.82821,-5.24132 -11.94674,-9.41356 -0.10502,-3.69684 2.58802,-8.09992 5.54612,-9.06782 1.18829,-0.38881 4.39025,-0.68197 7.11546,-0.65145 4.2529,0.0476 5.35093,0.49869 7.75,3.18371 5.00987,5.60702 2.90351,8.56528 -2.20492,3.09669 -2.18968,-2.34407 -3.65738,-3 -6.71265,-3 -4.39811,0 -8.28735,2.84097 -8.28735,6.05365 0,2.36194 5.03622,5.67431 10,6.57709 7.54834,1.37284 11,4.53613 11,10.08101 0,3.79208 -2.52117,7.19023 -6.59858,8.89388 -4.39827,1.83771 -7.06293,1.73135 -11.92179,-0.47589 z M 297.13421,278.4623 c 0.0117,-2.91341 13.77199,-34.26967 15.15724,-34.53948 1.01511,-0.19771 2.70367,2.49659 5.32705,8.5 4.33405,9.91815 6.95314,16.08111 7.77253,18.28948 0.30611,0.825 1.27846,3.1875 2.16079,5.25 1.51645,3.5448 1.50496,3.75 -0.20993,3.75 -1.16185,0 -2.60704,-1.63201 -4.01929,-4.53885 l -2.20515,-4.53885 -8.74412,0.28885 -8.74412,0.28885 -1.97412,4.25 c -1.8549,3.99332 -4.53197,5.76979 -4.52088,3 z m 22.3588,-11.52963 c 0.6348,-1.02713 -5.62441,-15.47392 -6.88648,-15.89458 -1.08687,-0.36226 -7.55603,14.73698 -6.82261,15.92421 0.61542,0.99621 13.09174,0.96925 13.70909,-0.0296 z m 16.86312,-4.97037 0.27308,-17.75 6.75237,-0.29575 c 9.20386,-0.40311 15.03461,2.10526 16.71264,7.18973 1.56261,4.73476 0.0274,9.49619 -4.02878,12.49504 l -3.02279,2.23485 1.88877,3.18806 c 1.03882,1.75344 2.895,4.87557 4.12484,6.93807 2.16955,3.63844 2.17753,3.75 0.26847,3.75 -1.37334,0 -3.22358,-2.11414 -6.12621,-7 -4.27818,-7.20125 -4.64318,-7.43523 -9.94431,-6.375 -3.10785,0.62156 -3.125,0.66 -3.125,7 0,5.73257 -0.20388,6.375 -2.02308,6.375 -1.96504,0 -2.01524,-0.5092 -1.75,-17.75 z m 18.58452,-2.28896 c 2.79166,-2.60083 2.79769,-6.68375 0.0142,-9.64659 -1.82835,-1.9462 -3.1808,-2.31445 -8.5,-2.31445 h -6.32568 v 7 7 h 6.31144 c 4.96938,0 6.77681,-0.43356 8.5,-2.03896 z m 21.96395,4.28896 -0.27539,-15.75 -5.31284,-0.30444 c -4.36614,-0.25019 -5.25493,-0.60658 -4.98783,-2 0.28086,-1.46522 1.98756,-1.73371 12.56284,-1.97634 7.91709,-0.18165 12.23783,0.0831 12.23783,0.75 0,0.56693 0.1125,1.36828 0.25,1.78078 0.1375,0.4125 -2.225,0.975 -5.25,1.25 l -5.5,0.5 -0.2754,15.75 c -0.22663,12.96134 -0.53198,15.75 -1.7246,15.75 -1.19262,0 -1.49798,-2.78866 -1.72461,-15.75 z"
       id="path250001" /></g></svg>
